<svg width="46" height="41" viewBox="0 0 46 41" fill="none" xmlns="http://www.w3.org/2000/svg">
<path id="Heading" d="M45.1841 28.276C45.1841 20.4253 40.4907 11.1667 31.1041 0.5L25.0881 4.212C29.5254 11.0387 32.0001 16.244 32.5121 19.828L24.9601 24.436C24.9601 27.4227 25.6854 30.3667 27.1361 33.268C28.5014 36.1693 29.9094 38.4307 31.3601 40.052C36.1387 40.052 39.9361 38.772 42.7521 36.212C44.3734 34.7613 45.1841 32.116 45.1841 28.276ZM20.2241 28.276C20.2241 20.4253 15.5308 11.1667 6.14408 0.5L0.128082 4.212C4.56541 11.0387 7.04008 16.244 7.55208 19.828L8.01086e-05 24.436C8.01086e-05 27.4227 0.725414 30.3667 2.17608 33.268C3.54141 36.1693 4.94941 38.4307 6.40008 40.052C11.1787 40.052 14.9761 38.772 17.7921 36.212C19.4134 34.7613 20.2241 32.116 20.2241 28.276Z" fill="white"/>
</svg>
