<svg width="46" height="41" viewBox="0 0 46 41" fill="none" xmlns="http://www.w3.org/2000/svg">
<path id="Heading" d="M0 28.276C0 20.4253 4.69333 11.1667 14.08 0.5L20.096 4.212C15.6587 11.0387 13.184 16.244 12.672 19.828L20.224 24.436C20.224 27.4227 19.4987 30.3667 18.048 33.268C16.6827 36.1693 15.2747 38.4307 13.824 40.052C9.04533 40.052 5.248 38.772 2.432 36.212C0.810667 34.7613 0 32.116 0 28.276ZM24.96 28.276C24.96 20.4253 29.6533 11.1667 39.04 0.5L45.056 4.212C40.6187 11.0387 38.144 16.244 37.632 19.828L45.184 24.436C45.184 27.4227 44.4587 30.3667 43.008 33.268C41.6427 36.1693 40.2347 38.4307 38.784 40.052C34.0053 40.052 30.208 38.772 27.392 36.212C25.7707 34.7613 24.96 32.116 24.96 28.276Z" fill="white"/>
</svg>
