<svg width="16" height="17" viewBox="0 0 16 17" fill="none" xmlns="http://www.w3.org/2000/svg">
<g id="search" clip-path="url(#clip0_1_1111)">
<path id="Vector" d="M14.5001 14.3744L10.7241 10.5983C11.6314 9.509 12.0839 8.1118 11.9873 6.69738C11.8908 5.28295 11.2526 3.96021 10.2057 3.0043C9.15867 2.0484 7.78347 1.53294 6.36612 1.56514C4.94877 1.59735 3.5984 2.17475 2.59593 3.17723C1.59345 4.1797 1.01605 5.53007 0.983845 6.94742C0.951637 8.36477 1.4671 9.73997 2.423 10.787C3.37891 11.8339 4.70165 12.4721 6.11608 12.5686C7.5305 12.6652 8.9277 12.2127 10.017 11.3054L13.7931 15.0814L14.5001 14.3744ZM2.00012 7.08142C2.00012 6.1914 2.26404 5.32137 2.75851 4.58135C3.25297 3.84133 3.95578 3.26455 4.77804 2.92396C5.60031 2.58336 6.50511 2.49425 7.37802 2.66788C8.25094 2.84152 9.05276 3.2701 9.6821 3.89944C10.3114 4.52877 10.74 5.3306 10.9137 6.20351C11.0873 7.07643 10.9982 7.98123 10.6576 8.80349C10.317 9.62576 9.74021 10.3286 9.00018 10.823C8.26016 11.3175 7.39013 11.5814 6.50012 11.5814C5.30705 11.5801 4.16323 11.1056 3.3196 10.2619C2.47597 9.41831 2.00144 8.27449 2.00012 7.08142Z" fill="#141414"/>
</g>
<defs>
<clipPath id="clip0_1_1111">
<rect width="16" height="16" fill="white" transform="translate(0 0.581421)"/>
</clipPath>
</defs>
</svg>
