<svg width="22" height="26" viewBox="0 0 22 26" fill="none" xmlns="http://www.w3.org/2000/svg">
<path fill-rule="evenodd" clip-rule="evenodd" d="M5.56037 2.98725L0.226591 5.99966L0.216259 6.58511C0.210558 6.90708 0.209966 7.17052 0.214954 7.17052C0.219942 7.17052 2.50455 5.88285 5.29187 4.30906L10.3597 1.44755L10.3746 13.3599L10.3897 25.2723L10.6594 25.4268L10.9291 25.5814L11.1935 25.43L11.4579 25.2784L11.4729 13.3626L11.4879 1.44674L16.5054 4.27934L21.523 7.11188L21.54 6.55124C21.5495 6.24293 21.5361 5.97162 21.5103 5.94824C21.4493 5.89298 11.063 0.033372 10.9672 0.00010734C10.927 -0.0138255 8.49394 1.3304 5.56037 2.98725ZM8.45956 3.67204C7.96968 3.94995 5.87211 5.13593 3.7983 6.3075L0.02773 8.43756L0.015262 11.5195L0.00279011 14.6013H3.91943H7.83609V18.6303V22.6593L4.73352 20.9083L1.63096 19.1574L1.61517 17.5179L1.59943 15.8785H0.799715H0L0.0138348 17.9442L0.02773 20.0098L3.26388 21.8372C5.04377 22.8421 7.1147 24.014 7.86587 24.4411C8.61709 24.8682 9.27837 25.2352 9.33552 25.2567C9.43391 25.2936 9.43928 24.9791 9.43928 19.1938V13.0919H5.51944H1.59967L1.61529 11.1931L1.63096 9.29428L4.73298 7.54165L7.83502 5.78897L7.85037 8.81637L7.86577 11.8438H8.63771H9.40961L9.4248 7.5043C9.43319 5.11761 9.41984 3.16524 9.39513 3.16576C9.37041 3.16628 8.94945 3.39408 8.45956 3.67204ZM12.4083 14.224C12.4083 20.3066 12.4283 25.2828 12.4528 25.2823C12.4773 25.2818 12.8313 25.0909 13.2395 24.8581L13.9818 24.4348L13.9968 15.1113L14.0119 5.78779L15.0506 6.37406L16.0893 6.96034L16.1044 15.0982L16.1195 23.236L16.832 22.8321C17.2239 22.6098 17.565 22.409 17.59 22.386C17.6149 22.3628 17.6348 19.0866 17.6341 15.1056C17.6333 11.1244 17.653 7.86879 17.6777 7.87073C17.7024 7.87273 18.2838 8.19392 18.9696 8.5846L20.2166 9.29485L20.2317 15.083C20.2401 18.2664 20.2577 20.8711 20.2709 20.8711C20.2842 20.8711 20.6318 20.6817 21.0433 20.4502L21.7916 20.0294L21.7915 14.2244L21.7913 8.4194L17.1443 5.79347C14.5885 4.34917 12.4773 3.16692 12.4528 3.16617C12.4283 3.16541 12.4083 8.14143 12.4083 14.224Z" fill="#F7E5C1"/>
</svg>
