<svg width="27" height="27" viewBox="0 0 27 27" fill="none" xmlns="http://www.w3.org/2000/svg">
<g id="search" clip-path="url(#clip0_1_1124)">
<path id="Vector" d="M24.0624 22.995L17.9264 16.8589C19.4008 15.0887 20.1361 12.8183 19.9792 10.5199C19.8223 8.22143 18.7853 6.07196 17.0839 4.51862C15.3826 2.96528 13.1479 2.12765 10.8447 2.17999C8.54151 2.23232 6.34716 3.1706 4.71814 4.79962C3.08912 6.42864 2.15084 8.62299 2.0985 10.9262C2.04617 13.2294 2.88379 15.4641 4.43714 17.1654C5.99048 18.8668 8.13994 19.9037 10.4384 20.0607C12.7368 20.2176 15.0073 19.4823 16.7774 18.0078L22.9135 24.1439L24.0624 22.995ZM3.74995 11.1439C3.74995 9.69765 4.17882 8.28386 4.98233 7.08132C5.78583 5.87879 6.92789 4.94153 8.26408 4.38806C9.60026 3.8346 11.0706 3.68978 12.489 3.97194C13.9075 4.25409 15.2105 4.95054 16.2332 5.97321C17.2558 6.99588 17.9523 8.29885 18.2344 9.71733C18.5166 11.1358 18.3718 12.6061 17.8183 13.9423C17.2649 15.2785 16.3276 16.4205 15.1251 17.2241C13.9225 18.0276 12.5087 18.4564 11.0624 18.4564C9.12371 18.4543 7.265 17.6832 5.8941 16.3123C4.52321 14.9414 3.7521 13.0827 3.74995 11.1439Z" fill="white"/>
</g>
<defs>
<clipPath id="clip0_1_1124">
<rect width="26" height="26" fill="white" transform="translate(0.5 0.581421)"/>
</clipPath>
</defs>
</svg>
