<svg width="16" height="17" viewBox="0 0 16 17" fill="none" xmlns="http://www.w3.org/2000/svg">
<g id="location" clip-path="url(#clip0_1_1118)">
<path id="Vector" d="M8 9.58142C7.50555 9.58142 7.0222 9.4348 6.61108 9.1601C6.19995 8.88539 5.87952 8.49495 5.6903 8.03813C5.50108 7.58132 5.45157 7.07865 5.54804 6.5937C5.6445 6.10874 5.8826 5.66329 6.23223 5.31366C6.58187 4.96402 7.02732 4.72592 7.51228 4.62946C7.99723 4.533 8.4999 4.5825 8.95671 4.77172C9.41353 4.96094 9.80397 5.28137 10.0787 5.6925C10.3534 6.10362 10.5 6.58697 10.5 7.08142C10.4992 7.74423 10.2356 8.37968 9.76693 8.84836C9.29826 9.31703 8.66281 9.58067 8 9.58142ZM8 5.58142C7.70333 5.58142 7.41332 5.6694 7.16665 5.83422C6.91997 5.99904 6.72771 6.23331 6.61418 6.5074C6.50065 6.78149 6.47095 7.08309 6.52882 7.37406C6.5867 7.66503 6.72956 7.9323 6.93934 8.14208C7.14912 8.35186 7.41639 8.49472 7.70737 8.5526C7.99834 8.61048 8.29994 8.58077 8.57403 8.46724C8.84812 8.35371 9.08238 8.16145 9.24721 7.91478C9.41203 7.6681 9.5 7.37809 9.5 7.08142C9.49956 6.68373 9.34139 6.30245 9.06018 6.02124C8.77897 5.74003 8.39769 5.58186 8 5.58142Z" fill="#141414"/>
<path id="Vector_2" d="M8.00001 15.5814L3.78226 10.6071C3.75831 10.5785 3.60816 10.3813 3.60816 10.3813C2.88761 9.43226 2.49832 8.27302 2.50001 7.08142C2.50001 5.62273 3.07947 4.22378 4.11092 3.19233C5.14237 2.16088 6.54131 1.58142 8.00001 1.58142C9.4587 1.58142 10.8576 2.16088 11.8891 3.19233C12.9205 4.22378 13.5 5.62273 13.5 7.08142C13.5018 8.27253 13.1128 9.43133 12.3926 10.3801L12.3919 10.3813C12.3919 10.3813 12.2419 10.5785 12.2195 10.605L8.00001 15.5814ZM4.40626 9.77892C4.40676 9.77927 4.52296 9.93302 4.54956 9.96612L8.00001 14.0354L11.455 9.96037C11.477 9.93277 11.5942 9.77792 11.5944 9.77752C12.183 9.00206 12.5012 8.05498 12.5 7.08142C12.5 5.88795 12.0259 4.74335 11.182 3.89944C10.3381 3.05553 9.19348 2.58142 8.00001 2.58142C6.80653 2.58142 5.66194 3.05553 4.81802 3.89944C3.97411 4.74335 3.50001 5.88795 3.50001 7.08142C3.4989 8.05551 3.81725 9.00309 4.40626 9.77892Z" fill="#141414"/>
</g>
<defs>
<clipPath id="clip0_1_1118">
<rect width="16" height="16" fill="white" transform="translate(0 0.581421)"/>
</clipPath>
</defs>
</svg>
